HIERARCHY
ROOT Hips
{
    OFFSET 0.000000 0.000000 0.000000
    CHANNELS 6 Xposition Yposition Zposition Zrotation Xrotation Yrotation
    JOINT Spine
    {
        OFFSET -0.000000 0.084000 0.000000
        CHANNELS 3 Zrotation Xrotation Yrotation
        JOINT Spine1
        {
            OFFSET -0.000000 0.216247 0.000000
            CHANNELS 3 Zrotation Xrotation Yrotation
            JOINT Neck
            {
                OFFSET -0.000000 0.215359 0.019578
                CHANNELS 3 Zrotation Xrotation Yrotation
                JOINT Head
                {
                    OFFSET -0.000000 0.143414 -0.020488
                    CHANNELS 3 Zrotation Xrotation Yrotation
                    End Site
                    {
                        OFFSET -0.000000 0.204877 0.000000
                    }
                }
            }
            JOINT LeftShoulder
            {
                OFFSET 0.040109 0.191272 -0.003631
                CHANNELS 3 Zrotation Xrotation Yrotation
                JOINT LeftArm
                {
                    OFFSET 0.138349 0.000000 0.000000
                    CHANNELS 3 Zrotation Xrotation Yrotation
                    JOINT LeftForeArm
                    {
                        OFFSET 0.335349 0.000000 0.000000
                        CHANNELS 3 Zrotation Xrotation Yrotation
                        JOINT LeftHand
                        {
                            OFFSET 0.276368 0.000000 0.000000
                            CHANNELS 3 Zrotation Xrotation Yrotation
                            End Site
                            {
                                OFFSET 0.153658 0.000000 0.000000
                            }
                        }
                    }
                }
            }
            JOINT RightShoulder
            {
                OFFSET -0.041533 0.191272 -0.003631
                CHANNELS 3 Zrotation Xrotation Yrotation
                JOINT RightArm
                {
                    OFFSET -0.138349 0.000000 0.000000
                    CHANNELS 3 Zrotation Xrotation Yrotation
                    JOINT RightForeArm
                    {
                        OFFSET -0.335349 0.000000 0.000000
                        CHANNELS 3 Zrotation Xrotation Yrotation
                        JOINT RightHand
                        {
                            OFFSET -0.276368 0.000000 0.000000
                            CHANNELS 3 Zrotation Xrotation Yrotation
                            End Site
                            {
                                OFFSET -0.153658 0.000000 0.000000
                            }
                        }
                    }
                }
            }
        }
    }
    JOINT LeftUpLeg
    {
        OFFSET 0.102438 0.000000 0.000000
        CHANNELS 3 Zrotation Xrotation Yrotation
        JOINT LeftLeg
        {
            OFFSET -0.000000 -0.442852 0.000000
            CHANNELS 3 Zrotation Xrotation Yrotation
            JOINT LeftFoot
            {
                OFFSET -0.000000 -0.461647 0.000000
                CHANNELS 3 Zrotation Xrotation Yrotation
                JOINT LeftToeBase
                {
                    OFFSET -0.000000 -0.066585 0.153658
                    CHANNELS 3 Zrotation Xrotation Yrotation
                    End Site
                    {
                        OFFSET -0.000000 0.000000 0.040975
                    }
                }
            }
        }
    }
    JOINT RightUpLeg
    {
        OFFSET -0.102438 0.000000 0.000000
        CHANNELS 3 Zrotation Xrotation Yrotation
        JOINT RightLeg
        {
            OFFSET -0.000000 -0.442852 0.000000
            CHANNELS 3 Zrotation Xrotation Yrotation
            JOINT RightFoot
            {
                OFFSET -0.000000 -0.461647 0.000000
                CHANNELS 3 Zrotation Xrotation Yrotation
                JOINT RightToeBase
                {
                    OFFSET -0.000000 -0.066585 0.153658
                    CHANNELS 3 Zrotation Xrotation Yrotation
                    End Site
                    {
                        OFFSET -0.000000 0.000000 0.040975
                    }
                }
            }
        }
    }
}
MOTION
Frames:    5
Frame Time:    0.010000
-0.533404    0.461422    0.177207    -2.302130    3.377365    -2.695099    -0.730848    5.115068    -1.124100    1.425440    26.190369    -0.709577    -12.330966    35.764866    2.143848    9.942060    -33.883972    4.075568    4.514309    -0.846828    -11.179159    -13.795087    9.225952    -47.900440    -7.352931    -46.399742    -86.511589    17.521553    -49.309574    16.745565    -6.315266    -1.908625    28.845263    19.797647    6.208325    39.183960    1.109530    -46.076294    88.881805    -52.561695    -30.227964    -40.977093    164.196411    -62.329002    149.206650    -124.731216    69.372597    111.326332    4.679679    -7.794465    6.155768    0.000000    0.000000    0.000000    178.029449    -64.419418    177.386398    143.886459    79.686546    -154.865784    -15.435889    -1.377983    -5.678910    0.000000    0.000000    0.000000    
-0.533374    0.461372    0.177152    -2.305159    3.377688    -2.696643    -0.761008    5.088916    -1.141172    1.462014    26.197863    -0.724583    -12.280304    35.737038    2.131146    9.891137    -33.847794    4.050962    4.546251    -0.848602    -11.172246    -13.876226    9.240600    -47.838245    -6.799184    -46.399731    -85.859001    16.207460    -49.145096    15.725698    -6.331234    -1.921777    28.820578    19.834539    6.391663    39.221504    0.817384    -46.273903    88.805588    -52.243591    -30.355383    -40.982174    164.212433    -62.326046    149.212585    -124.716606    69.372345    111.324387    4.672838    -7.795277    6.149558    0.000000    0.000000    0.000000    178.036469    -64.411743    177.387970    143.871964    79.690781    -154.899277    -15.445450    -1.366828    -5.629931    0.000000    0.000000    0.000000    
-0.533348    0.461318    0.177097    -2.308193    3.378146    -2.698009    -0.794014    5.059182    -1.158761    1.499026    26.210970    -0.739973    -12.220431    35.689102    2.115733    9.836175    -33.792614    4.024959    4.585338    -0.856348    -11.161331    -13.964810    9.243585    -47.786777    -6.440890    -46.389187    -85.401520    15.296266    -49.033260    14.998034    -6.346376    -1.940634    28.788525    19.876835    6.607725    39.264076    0.472885    -46.508987    88.702126    -51.871765    -30.503628    -40.997314    164.228546    -62.322441    149.218948    -124.704536    69.373138    111.324623    4.662371    -7.796678    6.141174    0.000000    0.000000    0.000000    178.044037    -64.404144    177.390442    143.853989    79.694122    -154.917007    -15.456376    -1.355603    -5.591621    0.000000    0.000000    0.000000    
-0.533328    0.461262    0.177044    -2.311063    3.378512    -2.699187    -0.831910    5.027765    -1.175811    1.539274    26.226645    -0.756137    -12.148895    35.624397    2.096868    9.773218    -33.720253    3.994790    4.631714    -0.866585    -11.148690    -14.060317    9.237560    -47.743584    -6.234205    -46.373478    -85.096901    14.688094    -48.969555    14.488326    -6.360996    -1.962541    28.747931    19.923872    6.862705    39.309841    0.074569    -46.786392    88.572418    -51.452038    -30.679539    -41.015778    164.244354    -62.318508    149.225739    -124.694878    69.374634    111.329262    4.649225    -7.798169    6.129714    0.000000    0.000000    0.000000    178.048767    -64.397209    177.390869    143.837479    79.697655    -154.923828    -15.468457    -1.345535    -5.564950    0.000000    0.000000    0.000000    
-0.533313    0.461203    0.176993    -2.313728    3.378823    -2.700104    -0.875874    4.996059    -1.191806    1.584046    26.242113    -0.773296    -12.059731    35.545639    2.073362    9.694201    -33.631706    3.956726    4.685608    -0.876495    -11.135626    -14.159931    9.228497    -47.708328    -6.136937    -46.361816    -84.905670    14.299579    -48.949585    14.135988    -6.373878    -1.984904    28.698410    19.969332    7.171467    39.357498    -0.386033    -47.121906    88.412460    -50.996582    -30.890823    -41.040363    164.259659    -62.314358    149.232986    -124.687248    69.376785    111.338623    4.635674    -7.799551    6.115873    0.000000    0.000000    0.000000    178.049377    -64.390999    177.388260    143.823380    79.701607    -154.924805    -15.482381    -1.336766    -5.546826    0.000000    0.000000    0.000000    
